<svg xmlns="http://www.w3.org/2000/svg" viewBox="0 0 800 450">
  <defs>
    <linearGradient id="bg3" x1="0%" y1="0%" x2="100%" y2="100%">
      <stop offset="0%" stop-color="#2d0808"/>
      <stop offset="100%" stop-color="#7f1d1d"/>
    </linearGradient>
  </defs>
  <rect width="800" height="450" fill="url(#bg3)"/>
  <pattern id="g3" x="0" y="0" width="40" height="40" patternUnits="userSpaceOnUse">
    <line x1="0" y1="0" x2="40" y2="0" stroke="rgba(255,255,255,0.05)" stroke-width="0.5"/>
    <line x1="0" y1="0" x2="0" y2="40" stroke="rgba(255,255,255,0.05)" stroke-width="0.5"/>
  </pattern>
  <rect width="800" height="450" fill="url(#g3)"/>
  <g transform="translate(240,55)">
    <polygon points="120,20 240,80 120,140 0,80" fill="#e53e3e" stroke="rgba(255,255,255,0.3)" stroke-width="1.5" opacity="0.9"/>
    <polygon points="0,80 120,140 120,270 0,210" fill="#991b1b" stroke="rgba(255,255,255,0.2)" stroke-width="1.5" opacity="0.9"/>
    <polygon points="120,140 240,80 240,210 120,270" fill="#b91c1c" stroke="rgba(255,255,255,0.2)" stroke-width="1.5" opacity="0.9"/>
    <polygon points="70,0 130,26 70,52 10,26" fill="#fca5a5" stroke="rgba(255,255,255,0.3)" stroke-width="1" opacity="0.85"/>
    <polygon points="10,26 70,52 70,108 10,82" fill="#ef4444" stroke="rgba(255,255,255,0.2)" stroke-width="1" opacity="0.85"/>
    <polygon points="70,52 130,26 130,82 70,108" fill="#dc2626" stroke="rgba(255,255,255,0.2)" stroke-width="1" opacity="0.85"/>
  </g>
  <rect x="55" y="90" width="165" height="275" rx="10" fill="rgba(0,0,0,0.4)" stroke="rgba(255,255,255,0.1)" stroke-width="1"/>
  <text x="137" y="115" font-family="Arial" font-size="11" fill="rgba(255,255,255,0.45)" text-anchor="middle">TINKERCAD SHAPES</text>
  <rect x="70" y="125" width="55" height="42" rx="4" fill="rgba(239,68,68,0.4)" stroke="rgba(239,68,68,0.6)" stroke-width="1"/>
  <text x="97" y="151" font-family="Arial" font-size="10" fill="white" text-anchor="middle">Box</text>
  <rect x="135" y="125" width="55" height="42" rx="4" fill="rgba(59,130,246,0.4)" stroke="rgba(59,130,246,0.6)" stroke-width="1"/>
  <text x="162" y="151" font-family="Arial" font-size="10" fill="white" text-anchor="middle">Cylinder</text>
  <rect x="70" y="177" width="55" height="42" rx="4" fill="rgba(16,185,129,0.4)" stroke="rgba(16,185,129,0.6)" stroke-width="1"/>
  <text x="97" y="203" font-family="Arial" font-size="10" fill="white" text-anchor="middle">Sphere</text>
  <rect x="135" y="177" width="55" height="42" rx="4" fill="rgba(245,158,11,0.4)" stroke="rgba(245,158,11,0.6)" stroke-width="1"/>
  <text x="162" y="203" font-family="Arial" font-size="10" fill="white" text-anchor="middle">Cone</text>
  <rect x="70" y="229" width="120" height="42" rx="4" fill="rgba(99,102,241,0.4)" stroke="rgba(99,102,241,0.6)" stroke-width="1"/>
  <text x="130" y="255" font-family="Arial" font-size="10" fill="white" text-anchor="middle">Hole Tool</text>
  <rect x="70" y="281" width="120" height="42" rx="4" fill="rgba(156,163,175,0.2)" stroke="rgba(156,163,175,0.4)" stroke-width="1"/>
  <text x="130" y="307" font-family="Arial" font-size="10" fill="rgba(255,255,255,0.7)" text-anchor="middle">Ruler / Measure</text>
  <line x1="488" y1="205" x2="590" y2="205" stroke="rgba(255,255,255,0.35)" stroke-width="1" stroke-dasharray="4,3"/>
  <text x="539" y="200" font-family="Arial" font-size="11" fill="rgba(255,255,255,0.45)" text-anchor="middle">60mm</text>
  <g transform="translate(575, 105)">
    <rect x="10" y="0" width="130" height="160" rx="6" fill="none" stroke="rgba(255,255,255,0.22)" stroke-width="2"/>
    <rect x="25" y="128" width="100" height="8" rx="2" fill="rgba(255,255,255,0.25)"/>
    <rect x="58" y="25" width="34" height="22" rx="3" fill="rgba(255,255,255,0.25)"/>
    <polygon points="68,47 80,47 74,64" fill="#f59e0b"/>
    <line x1="74" y1="64" x2="74" y2="128" stroke="#f59e0b" stroke-width="2" stroke-dasharray="3,3"/>
    <rect x="54" y="108" width="40" height="20" rx="3" fill="rgba(239,68,68,0.7)" stroke="rgba(239,68,68,0.9)" stroke-width="1"/>
    <circle cx="74" cy="66" r="9" fill="rgba(245,158,11,0.3)"/>
    <text x="75" y="185" font-family="Arial" font-size="11" fill="rgba(255,255,255,0.4)" text-anchor="middle">3D Printer</text>
  </g>
  <text x="400" y="368" font-family="Arial Black, Arial" font-size="26" font-weight="900" fill="white" text-anchor="middle" opacity="0.92">3D Design and Printing</text>
  <text x="400" y="395" font-family="Arial" font-size="13" fill="rgba(255,255,255,0.48)" text-anchor="middle">Design. Model. Print. Hold your creation.</text>
</svg>