<svg xmlns="http://www.w3.org/2000/svg" viewBox="0 0 800 450">
  <defs>
    <linearGradient id="bg" x1="0%" y1="0%" x2="100%" y2="100%">
      <stop offset="0%" stop-color="#0a2918"/>
      <stop offset="100%" stop-color="#1a5c34"/>
    </linearGradient>
    <linearGradient id="brd" x1="0%" y1="0%" x2="0%" y2="100%">
      <stop offset="0%" stop-color="#1a7a45"/>
      <stop offset="100%" stop-color="#145e35"/>
    </linearGradient>
  </defs>
  <rect width="800" height="450" fill="url(#bg)"/>
  <pattern id="dots" x="0" y="0" width="40" height="40" patternUnits="userSpaceOnUse">
    <circle cx="20" cy="20" r="1.2" fill="rgba(255,255,255,0.06)"/>
  </pattern>
  <rect width="800" height="450" fill="url(#dots)"/>
  <rect x="200" y="100" width="340" height="220" rx="12" fill="url(#brd)" stroke="#25a060" stroke-width="2"/>
  <text x="370" y="148" font-family="Arial" font-size="16" font-weight="bold" fill="rgba(255,255,255,0.45)" text-anchor="middle">ARDUINO UNO R3</text>
  <rect x="200" y="150" width="36" height="52" rx="4" fill="#888"/>
  <rect x="204" y="154" width="28" height="44" rx="2" fill="#555"/>
  <rect x="310" y="158" width="80" height="60" rx="4" fill="#1a1a1a"/>
  <text x="350" y="193" font-family="Arial" font-size="9" fill="rgba(255,255,255,0.35)" text-anchor="middle">ATMEGA328P</text>
  <rect x="280" y="100" width="200" height="10" rx="2" fill="#333"/>
  <rect x="285" y="103" width="6" height="6" rx="1" fill="#777"/>
  <rect x="297" y="103" width="6" height="6" rx="1" fill="#777"/>
  <rect x="309" y="103" width="6" height="6" rx="1" fill="#777"/>
  <rect x="321" y="103" width="6" height="6" rx="1" fill="#777"/>
  <rect x="333" y="103" width="6" height="6" rx="1" fill="#777"/>
  <rect x="345" y="103" width="6" height="6" rx="1" fill="#777"/>
  <circle cx="420" cy="238" r="7" fill="#00ff66" opacity="0.9"/>
  <circle cx="420" cy="238" r="14" fill="rgba(0,255,102,0.15)"/>
  <circle cx="445" cy="238" r="7" fill="#ff8800" opacity="0.9"/>
  <circle cx="445" cy="238" r="14" fill="rgba(255,136,0,0.15)"/>
  <rect x="560" y="115" width="120" height="210" rx="6" fill="#f0ebe0" stroke="#ccc" stroke-width="1.5"/>
  <line x1="575" y1="215" x2="665" y2="215" stroke="#ccc" stroke-width="0.5"/>
  <line x1="575" y1="130" x2="665" y2="130" stroke="#e53e3e" stroke-width="2" stroke-dasharray="4,2"/>
  <line x1="575" y1="305" x2="665" y2="305" stroke="#3b82f6" stroke-width="2" stroke-dasharray="4,2"/>
  <circle cx="580" cy="150" r="2" fill="#aaa"/><circle cx="592" cy="150" r="2" fill="#aaa"/>
  <circle cx="604" cy="150" r="2" fill="#aaa"/><circle cx="616" cy="150" r="2" fill="#aaa"/>
  <circle cx="628" cy="150" r="2" fill="#aaa"/><circle cx="640" cy="150" r="2" fill="#aaa"/>
  <circle cx="580" cy="165" r="2" fill="#aaa"/><circle cx="592" cy="165" r="2" fill="#aaa"/>
  <circle cx="604" cy="165" r="2" fill="#aaa"/><circle cx="616" cy="165" r="2" fill="#aaa"/>
  <circle cx="628" cy="165" r="2" fill="#aaa"/><circle cx="640" cy="165" r="2" fill="#aaa"/>
  <circle cx="580" cy="180" r="2" fill="#aaa"/><circle cx="592" cy="180" r="2" fill="#aaa"/>
  <circle cx="604" cy="180" r="2" fill="#aaa"/><circle cx="616" cy="180" r="2" fill="#aaa"/>
  <circle cx="628" cy="180" r="2" fill="#aaa"/><circle cx="640" cy="180" r="2" fill="#aaa"/>
  <circle cx="580" cy="240" r="2" fill="#aaa"/><circle cx="592" cy="240" r="2" fill="#aaa"/>
  <circle cx="604" cy="240" r="2" fill="#aaa"/><circle cx="616" cy="240" r="2" fill="#aaa"/>
  <circle cx="628" cy="240" r="2" fill="#aaa"/><circle cx="640" cy="240" r="2" fill="#aaa"/>
  <path d="M580 180 Q575 210 580 240" stroke="#3b82f6" stroke-width="2" fill="none"/>
  <ellipse cx="628" cy="170" rx="5" ry="7" fill="#ffcc00" stroke="#f59e0b" stroke-width="1"/>
  <line x1="628" y1="163" x2="628" y2="153" stroke="#888" stroke-width="1.5"/>
  <line x1="628" y1="177" x2="628" y2="187" stroke="#888" stroke-width="1.5"/>
  <path d="M558 150 Q520 130 480 142" stroke="#e53e3e" stroke-width="2.5" fill="none" stroke-linecap="round"/>
  <path d="M558 175 Q510 158 480 168" stroke="#3b82f6" stroke-width="2.5" fill="none" stroke-linecap="round"/>
  <path d="M558 200 Q510 218 480 208" stroke="#ffcc00" stroke-width="2.5" fill="none" stroke-linecap="round"/>
  <text x="400" y="368" font-family="Arial Black, Arial" font-size="26" font-weight="900" fill="white" text-anchor="middle" opacity="0.92">Arduino Programming</text>
  <text x="400" y="395" font-family="Arial" font-size="13" fill="rgba(255,255,255,0.48)" text-anchor="middle">Real Electronics. Real Circuits. Real Projects.</text>
</svg>